<svg xmlns="http://www.w3.org/2000/svg" viewBox="0 0 72 48" width="72" height="48">
  <path d="M36 23 C40 12 50 6 64 4 C58 10 54 16 50 24 Z" fill="#dbeefb" stroke="#6aa6d8" stroke-width="1.6" stroke-linejoin="round"/>
  <path d="M14 27 C16 22 21 20 27 21 C35 22 43 25 52 29 L64 26 L57 33 C50 37 40 39 30 38 C22 37 16 33 14 27 Z" fill="#fff" stroke="#6aa6d8" stroke-width="1.6" stroke-linejoin="round"/>
  <path d="M26 24 C28 12 34 5 44 2 C42 10 42 18 40 26 C36 27 30 26 26 24 Z" fill="#fff" stroke="#6aa6d8" stroke-width="1.6" stroke-linejoin="round"/>
  <circle cx="19" cy="25" r="1.3" fill="#2e6ea8"/>
  <path d="M14.5 26.5 L10 28 L14.8 29" fill="#f7cf4f" stroke="#e0b53a" stroke-width="0.8" stroke-linejoin="round"/>
  <path d="M11 28.5 C8 31 5 35 3 40" fill="none" stroke="#6f8f4e" stroke-width="1.3" stroke-linecap="round"/>
  <g fill="#8fb069"><ellipse cx="7.5" cy="31" rx="3" ry="1.3" transform="rotate(-35 7.5 31)"/><ellipse cx="8" cy="35" rx="3" ry="1.3" transform="rotate(30 8 35)"/><ellipse cx="4" cy="36" rx="3" ry="1.3" transform="rotate(-60 4 36)"/><ellipse cx="4.6" cy="40.5" rx="2.6" ry="1.1" transform="rotate(20 4.6 40.5)"/></g>
</svg>
